<svg xmlns="http://www.w3.org/2000/svg" viewBox="0 0 320 240" fill="none" aria-hidden="true">
  <g stroke="#6b7280" stroke-width="1.25" stroke-linecap="round" stroke-linejoin="round">
    <path d="M248 88c18 18 18 46 0 64" opacity="0.35"/>
    <path d="M236 100c12 12 12 30 0 42" opacity="0.55"/>
    <path d="M224 112c6 6 6 14 0 20" opacity="0.75"/>
    <circle cx="224" cy="122" r="3" fill="#6b7280" stroke="none"/>
    <path d="M96 196v-52c0-28 22-50 50-50s50 22 50 50v52" opacity="0.9"/>
    <path d="M146 118c-8 0-14 10-12 18" opacity="0.7"/>
    <path d="M168 132h12" opacity="0.5"/>
    <rect x="200" y="168" width="72" height="48" rx="6" opacity="0.4"/>
    <path d="M216 188h40M216 198h28" opacity="0.35"/>
  </g>
</svg>
